<?xml version="1.0" encoding="utf-8"?>
<!-- Generator: Adobe Illustrator 23.0.3, SVG Export Plug-In . SVG Version: 6.00 Build 0)  -->
<svg version="1.1" id="Calque_1" xmlns="http://www.w3.org/2000/svg" xmlns:xlink="http://www.w3.org/1999/xlink" x="0px" y="0px"
	 viewBox="0 0 2215.78 353.56" style="enable-background:new 0 0 2215.78 353.56;" xml:space="preserve">
<style type="text/css">
	.st0{fill:#FFFFFF;}
</style>
<g>
	<g>
		<g>
			<path class="st0" d="M1203.06,95.94c0-64.36,57.64-95.94,115.68-95.94c58.04,0,116.08,31.98,116.08,95.94v95.55
				c0,63.96-57.64,95.94-115.68,95.94c-58.04,0-116.08-31.98-116.08-95.94V95.94z M1273.73,191.49c0,20.53,22.9,30.4,45.4,30.4
				c22.5,0,45.01-10.27,45.01-30.4V95.94c0-21.72-23.29-31.59-46.19-31.59c-22.11,0-44.22,11.05-44.22,31.59V191.49z"/>
			<path class="st0" d="M1542.21,189.91c0,45.01,79.75,45.01,80.15,0V3.95h71.46v185.96c-0.4,131.08-223.47,131.08-223.07,0V3.95
				h71.46V189.91z"/>
			<path class="st0" d="M1735.68,3.95h67.12l67.51,119.23l23.69,56.06l1.97-0.39c-0.4,0-7.5-48.17-7.9-48.17V3.95h70.28v279.53
				h-71.46l-63.17-110.16l-24.48-56.06l-1.97,0.4l9.08,54.09v111.73h-70.67V3.95z"/>
			<path class="st0" d="M2107.21,3.95c56.06,0,108.57,28.43,108.57,93.57v93.97c0,64.36-52.51,92.39-108.57,91.99h-104.63V3.95
				H2107.21z M2109.58,217.15c24.08,0,35.14-12.24,35.14-30.4V99.5c0-18.16-11.45-29.61-35.14-29.61h-35.93v147.27H2109.58z"/>
		</g>
		<path class="st0" d="M1193.97,283.48l-76.2-95.94c33.95-10.66,54.88-39.88,54.88-91.6c-1.58-65.54-46.19-91.99-103.84-91.99
			h-40.27v65.93H1070c44.61,0,44.61,63.96,0,63.96h-41.46v60.8h12.63l64.75,88.83l53.88,70.08h92.84L1193.97,283.48z"/>
	</g>
	<g>
		<g>
			<path class="st0" d="M292.22,3.95h67.12l67.52,119.23l23.69,56.06l1.97-0.39c-0.39,0-7.5-48.17-7.9-48.17V3.95h70.28v279.53
				h-71.46l-63.17-110.16l-24.48-56.06l-1.97,0.4l9.08,54.09v111.73h-70.67V3.95z"/>
			<path class="st0" d="M796.41,283.48H720.6l-18.16-56.06h-74.62l-17.37,56.06h-75.81L632.17,3.95h64.36L796.41,283.48z
				 M685.47,164.64l-19.35-81.73h-1.97l-20.53,81.73H685.47z"/>
		</g>
		<polygon class="st0" points="0,69.93 71.27,69.93 144.61,69.93 144.61,3.98 0,3.98 		"/>
		<polygon class="st0" points="144.61,133.61 0,133.61 0,283.36 71.27,283.36 71.27,194.42 71.37,194.42 144.61,194.42 		"/>
		<polygon class="st0" points="886.04,213.6 886.04,133.56 814.97,133.56 814.97,283.48 999.75,283.48 999.75,213.6 		"/>
		<rect x="177.33" y="133.56" class="st0" width="70.67" height="149.93"/>
		<rect x="177.33" y="3.95" class="st0" width="70.67" height="65.89"/>
	</g>
</g>
</svg>
